<svg id="Layer_1" data-name="Layer 1" xmlns="http://www.w3.org/2000/svg" viewBox="0 0 512 499.36"><defs><style>.cls-1,.cls-2{fill:#191717;}.cls-1{fill-rule:evenodd;}</style></defs><title>GitHub-Mark</title><path class="cls-1" d="M256,6.32c-141.37,0-256,114.61-256,256C0,375.43,73.35,471.39,175.07,505.24c12.79,2.37,17.49-5.56,17.49-12.32,0-6.1-.24-26.27-.35-47.66C121,460.75,106,415.05,106,415.05,94.32,385.47,77.54,377.6,77.54,377.6,54.31,361.71,79.29,362,79.29,362c25.71,1.81,39.24,26.39,39.24,26.39,22.84,39.13,59.89,27.82,74.5,21.28,2.3-16.55,8.93-27.84,16.26-34.24C152.42,369,92.65,347,92.65,249c0-27.95,10-50.79,26.38-68.72-2.66-6.45-11.42-32.48,2.48-67.75,0,0,21.5-6.87,70.41,26.25a242.68,242.68,0,0,1,128.21,0c48.86-33.12,70.33-26.25,70.33-26.25,13.94,35.27,5.17,61.3,2.51,67.75C409.39,198.16,419.32,221,419.32,249c0,98.33-59.89,120-116.89,126.31,9.18,7.95,17.36,23.53,17.36,47.41,0,34.25-.3,61.82-.3,70.25,0,6.82,4.61,14.8,17.59,12.29C438.74,471.32,512,375.39,512,262.32,512,120.93,397.38,6.32,256,6.32Z" transform="translate(0 -6.32)"/><path class="cls-2" d="M97,373.88c-.56,1.27-2.57,1.66-4.39.78s-2.89-2.57-2.29-3.84,2.55-1.68,4.4-.8,2.92,2.58,2.28,3.86Zm-3.15-2.34" transform="translate(0 -6.32)"/><path class="cls-2" d="M107.33,385.45c-1.22,1.13-3.61.6-5.23-1.19s-2-4.17-.75-5.32,3.58-.6,5.25,1.19,2,4.17.73,5.32Zm-2.44-2.62" transform="translate(0 -6.32)"/><path class="cls-2" d="M117.42,400.19c-1.56,1.09-4.13.07-5.72-2.21s-1.57-5,0-6.1,4.12-.11,5.72,2.15,1.57,5,0,6.16Zm0,0" transform="translate(0 -6.32)"/><path class="cls-2" d="M131.25,414.43c-1.4,1.55-4.39,1.13-6.58-1s-2.86-5-1.45-6.54,4.43-1.11,6.63,1,2.9,5,1.4,6.54Zm0,0" transform="translate(0 -6.32)"/><path class="cls-2" d="M150.33,422.71c-.62,2-3.5,2.91-6.4,2.06s-4.79-3.23-4.2-5.25,3.49-3,6.41-2.06,4.79,3.2,4.19,5.25Zm0,0" transform="translate(0 -6.32)"/><path class="cls-2" d="M171.28,424.24c.07,2.11-2.39,3.86-5.43,3.9s-5.54-1.64-5.57-3.72,2.4-3.86,5.46-3.92,5.54,1.64,5.54,3.74Zm0,0" transform="translate(0 -6.32)"/><path class="cls-2" d="M190.78,420.92c.36,2.06-1.76,4.17-4.78,4.74s-5.72-.73-6.1-2.77,1.78-4.23,4.75-4.78,5.74.72,6.13,2.81Zm0,0" transform="translate(0 -6.32)"/></svg>