<svg id="Layer_1" data-name="Layer 1" xmlns="http://www.w3.org/2000/svg" xmlns:xlink="http://www.w3.org/1999/xlink" viewBox="0 0 539.16 539.16"><defs><style>.cls-1{fill:none;}.cls-2{clip-path:url(#clip-path);}.cls-3{fill:#fbbc05;}.cls-4{fill:#ea4335;}.cls-5{fill:#34a853;}.cls-6{fill:#4285f4;}</style><clipPath id="clip-path" transform="translate(22.47 22.47)"><path class="cls-1" d="M477.38,202.19H247.12v95.47H379.66c-12.36,60.66-64,95.48-132.54,95.48a146,146,0,1,1,0-292,142.84,142.84,0,0,1,91,32.58L410,61.78C366.18,23.59,310,0,247.12,0a247.12,247.12,0,1,0,0,494.23C370.67,494.23,483,404.37,483,247.12,483,232.51,480.75,216.79,477.38,202.19Z"/></clipPath></defs><title>google</title><g class="cls-2"><path class="cls-3" d="M-22.47,393.14v-292l191,146Z" transform="translate(22.47 22.47)"/></g><g class="cls-2"><path class="cls-4" d="M-22.47,101.09l191,146,78.63-68.52L516.7,134.79V-22.47H-22.47Z" transform="translate(22.47 22.47)"/></g><g class="cls-2"><path class="cls-5" d="M-22.47,393.14l337-258.35L403.25,146,516.7-22.47V516.7H-22.47Z" transform="translate(22.47 22.47)"/></g><g class="cls-2"><path class="cls-6" d="M516.7,516.7,168.49,247.12l-44.93-33.7L516.7,101.09Z" transform="translate(22.47 22.47)"/></g></svg>